<?xml version="1.0" encoding="UTF-8"?>
<svg xmlns="http://www.w3.org/2000/svg">
  <defs>
    <!-- Submit -->
    <symbol id="submit" stroke-linejoin="round" viewBox="0 0 16 16" style="color: currentcolor;">
      <path fill-rule="evenodd" clip-rule="evenodd" d="M8.70711 1.39644C8.31659 1.00592 7.68342 1.00592 7.2929 1.39644L2.21968 6.46966L1.68935 6.99999L2.75001 8.06065L3.28034 7.53032L7.25001 3.56065V14.25V15H8.75001V14.25V3.56065L12.7197 7.53032L13.25 8.06065L14.3107 6.99999L13.7803 6.46966L8.70711 1.39644Z" fill="currentColor"></path>
    </symbol>
    <!-- Upload -->
    <symbol id="upload" fill="none" viewBox="0 0 16 16">
      <g clip-path="url(#a)">
        <path clip-rule="evenodd" d="M14.5 2.5h-13v6.69l1.47-1.47.22-.22h3.75l.03-.03 3.5-3.5h1.06l2.97 2.97V2.5ZM8 8.56l1.53 1.53.53.53L9 11.68l-.53-.53L6.32 9H3.81l-2.28 2.28-.03.03v1.19a1 1 0 0 0 1 1h11a1 1 0 0 0 1-1V9.06L11 5.56 8.03 8.53 8 8.56Zm-8 2.25v1.69A2.5 2.5 0 0 0 2.5 15h11a2.5 2.5 0 0 0 2.5-2.5V9.56l.56-.56-.53-.53-.03-.03V1H0v9.69l-.06.06.06.06Z" fill="currentColor" fill-rule="evenodd"></path>
      </g>
      <defs>
        <clipPath id="a">
          <path d="M0 0h16v16H0z" fill="currentColor"></path>
        </clipPath>
      </defs>
    </symbol>
    <!-- Loading -->
    <symbol id="loading" xmlns="http://www.w3.org/2000/svg" width="24" height="24" viewBox="0 0 24 24" fill="none" stroke="currentColor" stroke-width="2" stroke-linecap="round" stroke-linejoin="round" aria-hidden="true">
      <path d="M21 12a9 9 0 1 1-6.219-8.56"></path>
    </symbol>
    <!-- Arrow -->
    <symbol id="arrow" width="15" height="15" viewBox="0 0 15 15" fill="none">
      <path d="M3.13523 6.15803C3.3241 5.95657 3.64052 5.94637 3.84197 6.13523L7.5 9.56464L11.158 6.13523C11.3595 5.94637 11.6759 5.95657 11.8648 6.15803C12.0536 6.35949 12.0434 6.67591 11.842 6.86477L7.84197 10.6148C7.64964 10.7951 7.35036 10.7951 7.15803 10.6148L3.15803 6.86477C2.95657 6.67591 2.94637 6.35949 3.13523 6.15803Z" fill="currentColor" fill-rule="evenodd" clip-rule="evenodd"></path>
    </symbol>
    <!-- Swap -->
    <symbol id="swap" strokeLinejoin="round" viewBox="0 0 16 16">
      <path fill-rule="evenodd" clip-rule="evenodd" d="M8.70711 1.39644C8.31659 1.00592 7.68342 1.00592 7.2929 1.39644L2.21968 6.46966L1.68935 6.99999L2.75001 8.06065L3.28034 7.53032L7.25001 3.56065V14.25V15H8.75001V14.25V3.56065L12.7197 7.53032L13.25 8.06065L14.3107 6.99999L13.7803 6.46966L8.70711 1.39644Z" fill="currentColor" />
    </symbol>
    <!-- Twitter -->
    <symbol id="twitter" xmlns="http://www.w3.org/2000/svg" viewBox="0 0 24 24" aria-hidden="true">
      <g>
        <path fill="currentColor" d="M14.258 10.152L23.176 0h-2.113l-7.747 8.813L7.133 0H0l9.352 13.328L0 23.973h2.113l8.176-9.309 6.531 9.309h7.133zm-2.895 3.293l-.949-1.328L2.875 1.56h3.246l6.086 8.523.945 1.328 7.91 11.078h-3.246zm0 0"></path>
      </g>
    </symbol>
    <!-- Swap (Alternative) -->
    <symbol id="swap-arrow" xmlns="http://www.w3.org/2000/svg" width="24" height="24" viewBox="0 0 24 24" fill="none">
      <path d="M5 10L9 6V19" stroke="black" stroke-width="2" />
      <path d="M19 14L15 18V5" stroke="black" stroke-width="2" />
    </symbol>
  </defs>
  <!-- Interval -->
  <symbol id="interval" height="16" stroke-linejoin="round" viewBox="0 0 16 16" width="16" style="color: currentcolor;">
    <path fill-rule="evenodd" clip-rule="evenodd" d="M6.75011 4H6.00011V5.5H6.75011H9.43945L5.46978 9.46967L4.93945 10L6.00011 11.0607L6.53044 10.5303L10.499 6.56182V9.25V10H11.999V9.25V5C11.999 4.44772 11.5512 4 10.999 4H6.75011Z" fill="currentColor"></path>
  </symbol>
  <!-- Chevron -->
  <symbol id="chevron" viewBox="0 0 16 16" fill="none" stroke="currentColor" strokeWidth="2" strokeLinecap="round" strokeLinejoin="round" className="lucide lucide-chevron-right ml-1 size-4">
    <path d="m9 18 6-6-6-6" />
  </symbol>
  <!-- Search -->
  <symbol xmlns="http://www.w3.org/2000/svg" id='search' viewBox="0 0 24 24" fill="none" stroke="currentColor" stroke-width="2" stroke-linecap="round" stroke-linejoin="round">
    <circle cx="11" cy="11" r="8"></circle>
    <path d="m21 21-4.3-4.3"></path>
  </symbol>
  <!-- More -->
  <symbol id="more" viewBox="0 0 24 24" width="24" height="24" fill="currentColor">
    <path d="M14.791 5.207 8 12l6.793 6.793a1 1 0 1 1-1.415 1.414l-7.5-7.5a1 1 0 0 1 0-1.414l7.5-7.5a1 1 0 1 1 1.415 1.414z"></path>
  </symbol>
  <!-- Info -->
  <symbol id="info" height="16" stroke-linejoin="round" viewBox="0 0 16 16" width="16" style="color: currentcolor;">
    <path fill-rule="evenodd" clip-rule="evenodd" d="M16 8C16 12.4183 12.4183 16 8 16C3.58172 16 0 12.4183 0 8C0 3.58172 3.58172 0 8 0C12.4183 0 16 3.58172 16 8ZM6.25002 7H7.00002H7.75C8.30229 7 8.75 7.44772 8.75 8V11.5V12.25H7.25V11.5V8.5H7.00002H6.25002V7ZM8 6C8.55229 6 9 5.55228 9 5C9 4.44772 8.55229 4 8 4C7.44772 4 7 4.44772 7 5C7 5.55228 7.44772 6 8 6Z" fill="currentColor"></path>
  </symbol>
  <!-- Line chart -->
  <symbol id="line-chart" height="16" stroke-linejoin="round" viewBox="0 0 16 16" width="16" style="color: currentcolor;">
    <path fill="currentColor" fill-rule="evenodd" d="M1 1v11.75A2.25 2.25 0 0 0 3.25 15H15v-1.5H3.25a.75.75 0 0 1-.75-.75V1H1Zm13.297 5.013.513-.547-1.094-1.026-.513.547-3.22 3.434-2.276-2.275a1 1 0 0 0-1.414 0L4.22 8.22l-.53.53 1.06 1.06.53-.53L7 7.56l2.287 2.287a1 1 0 0 0 1.437-.023l3.573-3.811Z" clip-rule="evenodd"></path>
  </symbol>
  <!-- Sort ascending -->
  <symbol id="sort-ascending" height="16" stroke-linejoin="round" viewBox="0 0 16 16" width="16" style="color: currentcolor;">
    <path fill-rule="evenodd" clip-rule="evenodd" d="M12.5303 1.21967C12.2374 0.926777 11.7626 0.926777 11.4697 1.21967L9.21967 3.46967L8.68934 4L9.75 5.06066L10.2803 4.53033L11.25 3.56066V13.25V14H12.75V13.25V3.56066L13.7197 4.53033L14.25 5.06066L15.3107 4L14.7803 3.46967L12.5303 1.21967ZM1.75 4H1V5.5H1.75H5.25H6V4H5.25H1.75ZM1.75 8.25H1V9.75H1.75H4.25H5V8.25H4.25H1.75ZM1.75 12.5H1V14H1.75H7.25H8V12.5H7.25H1.75Z" fill="currentColor"></path>
  </symbol>
  <!-- Sort descending -->
  <symbol id="sort-descending" height="16" stroke-linejoin="round" viewBox="0 0 16 16" width="16" style="color: currentcolor;">
    <path fill-rule="evenodd" clip-rule="evenodd" d="M1.75 12H1V10.5H1.75H5.25H6V12H5.25H1.75ZM1.75 7.75H1V6.25H1.75H4.25H5V7.75H4.25H1.75ZM1.75 3.5H1V2H1.75H7.25H8V3.5H7.25H1.75ZM12.5303 14.7803C12.2374 15.0732 11.7626 15.0732 11.4697 14.7803L9.21967 12.5303L8.68934 12L9.75 10.9393L10.2803 11.4697L11.25 12.4393V2.75V2H12.75V2.75V12.4393L13.7197 11.4697L14.25 10.9393L15.3107 12L14.7803 12.5303L12.5303 14.7803Z" fill="currentColor"></path>
  </symbol>
  <!-- Cross circle -->
  <symbol id="cross-circle" height="16" stroke-linejoin="round" viewBox="0 0 16 16" width="16" style="color: currentcolor;">
    <path fill-rule="evenodd" clip-rule="evenodd" d="M14.5 8C14.5 11.5899 11.5899 14.5 8 14.5C4.41015 14.5 1.5 11.5899 1.5 8C1.5 4.41015 4.41015 1.5 8 1.5C11.5899 1.5 14.5 4.41015 14.5 8ZM16 8C16 12.4183 12.4183 16 8 16C3.58172 16 0 12.4183 0 8C0 3.58172 3.58172 0 8 0C12.4183 0 16 3.58172 16 8ZM5.5 11.5607L6.03033 11.0303L8 9.06066L9.96967 11.0303L10.5 11.5607L11.5607 10.5L11.0303 9.96967L9.06066 8L11.0303 6.03033L11.5607 5.5L10.5 4.43934L9.96967 4.96967L8 6.93934L6.03033 4.96967L5.5 4.43934L4.43934 5.5L4.96967 6.03033L6.93934 8L4.96967 9.96967L4.43934 10.5L5.5 11.5607Z" fill="currentColor"></path>
  </symbol>
  <!-- Lightning -->
  <symbol id="lightning" height="16" stroke-linejoin="round" viewBox="0 0 16 16" width="16" style="color: currentcolor;">
    <path fill-rule="evenodd" clip-rule="evenodd" d="M7.15714 0L2.33264 9.40776L1.77252 10.5H3.00001H7.00001C7.13808 10.5 7.25001 10.6119 7.25001 10.75V16H8.84288L13.6674 6.59224L14.2275 5.5H13H9.00001C8.86194 5.5 8.75001 5.38807 8.75001 5.25V0H7.15714ZM7.00001 9H4.22749L7.25001 3.1061V5.25C7.25001 6.2165 8.03351 7 9.00001 7H11.7725L8.75001 12.8939V10.75C8.75001 9.7835 7.96651 9 7.00001 9Z" fill="currentColor"></path>
  </symbol>
  <!-- Chevron right -->
  <symbol id="chevron-right" xmlns="http://www.w3.org/2000/svg" viewBox="0 0 24 24" fill="none" stroke="currentColor" strokeWidth="2" strokeLinecap="round" strokeLinejoin="round">
    <path d="m9 18 6-6-6-6"></path>
  </symbol>
  <!-- Post on X -->
  <symbol id="post-on-x" viewBox="0 0 32 32" fill="none" xmlns="http://www.w3.org/2000/svg">
    <rect width="32" height="32" fill="none" />
    <path d="M17.9686 14.1623L26.7065 4H24.6358L17.0488 12.8238L10.9891 4H4L13.1634 17.3432L4 28H6.07069L14.0827 18.6817L20.4822 28H27.4714L17.9681 14.1623H17.9686ZM15.1326 17.4607L14.2041 16.132L6.81679 5.55961H9.99723L15.9589 14.0919L16.8873 15.4206L24.6368 26.5113H21.4564L15.1326 17.4612V17.4607Z" fill="white" />
  </symbol>
  <!-- Face plus -->
  <symbol id="face-plus" stroke-linejoin="round" viewBox="0 0 16 16" style="color: currentcolor;">
    <path fill-rule="evenodd" clip-rule="evenodd" d="M12.375 5.375V4.75V3.625H11.25H10.625V2.375H11.25H12.375V1.25V0.625H13.625V1.25V2.375H14.75H15.375V3.625H14.75H13.625V4.75V5.375H12.375ZM7.5 2.5C4.18629 2.5 1.5 5.18629 1.5 8.5C1.5 11.8137 4.18629 14.5 7.5 14.5C10.8137 14.5 13.5 11.8137 13.5 8.5C13.5 8.00249 13.4396 7.52012 13.3261 7.05939L14.7826 6.70061C14.9248 7.27782 15 7.88064 15 8.5C15 12.6421 11.6421 16 7.5 16C3.35786 16 0 12.6421 0 8.5C0 4.35786 3.35786 1 7.5 1C8.11936 1 8.72218 1.07524 9.29939 1.21742L8.94061 2.67388C8.47988 2.56039 7.99751 2.5 7.5 2.5ZM4.78814 9.89406L5.18309 10.3785C5.73216 11.0519 6.56631 11.4802 7.50098 11.4802C8.43565 11.4802 9.26979 11.0519 9.81886 10.3785L10.2138 9.89406L11.1826 10.684L10.7876 11.1684C10.0114 12.1204 8.82714 12.7302 7.50098 12.7302C6.17481 12.7302 4.99057 12.1204 4.2143 11.1684L3.81935 10.684L4.78814 9.89406ZM5.5 8C6.05228 8 6.5 7.55228 6.5 7C6.5 6.44772 6.05228 6 5.5 6C4.94772 6 4.5 6.44772 4.5 7C4.5 7.55228 4.94772 8 5.5 8ZM10.5 7C10.5 7.55228 10.0523 8 9.5 8C8.94771 8 8.5 7.55228 8.5 7C8.5 6.44772 8.94771 6 9.5 6C10.0523 6 10.5 6.44772 10.5 7Z" fill="currentColor"></path>
  </symbol>
  <!-- More vertical -->
  <symbol id="more-vertical" height="16" stroke-linejoin="round" viewBox="0 0 16 16" width="16" style="color: currentcolor;">
    <path fill-rule="evenodd" clip-rule="evenodd" d="M8 4C7.17157 4 6.5 3.32843 6.5 2.5C6.5 1.67157 7.17157 1 8 1C8.82843 1 9.5 1.67157 9.5 2.5C9.5 3.32843 8.82843 4 8 4ZM8 9.5C7.17157 9.5 6.5 8.82843 6.5 8C6.5 7.17157 7.17157 6.5 8 6.5C8.82843 6.5 9.5 7.17157 9.5 8C9.5 8.82843 8.82843 9.5 8 9.5ZM6.5 13.5C6.5 14.3284 7.17157 15 8 15C8.82843 15 9.5 14.3284 9.5 13.5C9.5 12.6716 8.82843 12 8 12C7.17157 12 6.5 12.6716 6.5 13.5Z" fill="currentColor"></path>
  </symbol>
  <!-- Telegram-->
  <symbol xmlns="http://www.w3.org/2000/svg" fill="currentColor" id="telegram" viewBox="0 0 16 16">
    <path d="M16 8A8 8 0 1 1 0 8a8 8 0 0 1 16 0M8.287 5.906q-1.168.486-4.666 2.01-.567.225-.595.442c-.03.243.275.339.69.47l.175.055c.408.133.958.288 1.243.294q.39.01.868-.32 3.269-2.206 3.374-2.23c.05-.012.12-.026.166.016s.042.12.037.141c-.03.129-1.227 1.241-1.846 1.817-.193.18-.33.307-.358.336a8 8 0 0 1-.188.186c-.38.366-.664.64.015 1.088.327.216.589.393.85.571.284.194.568.387.936.629q.14.092.27.187c.331.236.63.448.997.414.214-.02.435-.22.547-.82.265-1.417.786-4.486.906-5.751a1.4 1.4 0 0 0-.013-.315.34.34 0 0 0-.114-.217.53.53 0 0 0-.31-.093c-.3.005-.763.166-2.984 1.09"></path>
  </symbol>
  <!-- Reply-->
  <symbol id="reply" viewBox="0 0 16 16" fill="lch(63.975% 1.933 272 / 1)" role="img" focusable="false" aria-hidden="true" xmlns="http://www.w3.org/2000/svg" style="--icon-color: lch(63.975% 1.933 272 / 1);">
    <path d="M5.137 3.118a.518.518 0 0 1 .56-.063c.184.089.3.277.301.483v1.926C14.392 5.822 15 12.336 15 12.427a.534.534 0 0 1-.487.537h-.043a.533.533 0 0 1-.524-.45c-.01-.054-1.412-3.788-7.947-4.05l.002 2a.529.529 0 0 1-.887.397l-3.95-3.548a.54.54 0 0 1 .026-.816l3.948-3.379Z"></path>
  </symbol>
  <!-- Up arrow-->
  <symbol id="up-arrow" viewBox="0 0 24 24" aria-hidden="true" fill="currentColor">
    <g>
      <path d="M12 3.59l7.457 7.45-1.414 1.42L13 7.41V21h-2V7.41l-5.043 5.05-1.414-1.42L12 3.59z"></path>
    </g>
  </symbol>
  <!-- Droplet-->
  <symbol id="droplet" stroke-linejoin="round" viewBox="0 0 16 16" style="color: currentcolor;">
    <path fill-rule="evenodd" clip-rule="evenodd" d="M4.47471 5.7366L8 2.14221L11.5253 5.73661C13.4916 7.74143 13.4916 11.0037 11.5253 13.0086C9.57493 14.9971 6.42507 14.9971 4.47471 13.0086C2.50843 11.0037 2.50843 7.74143 4.47471 5.7366ZM3.40381 4.68629L6.94949 1.07111L8 0L9.05051 1.07111L12.5962 4.68629C15.1346 7.27446 15.1346 11.4707 12.5962 14.0589C10.0578 16.647 5.94221 16.647 3.40381 14.0589C0.865397 11.4707 0.865399 7.27446 3.40381 4.68629ZM11.25 9.5V8.75H9.75V9.5C9.75 10.4665 8.9665 11.25 8 11.25H7.25V12.75H8C9.79493 12.75 11.25 11.2949 11.25 9.5Z" fill="currentColor"></path>
  </symbol>
  <!-- Discord-->
  <symbol id="discord" xmlns="http://www.w3.org/2000/svg" width="16" height="16" fill="currentColor" viewBox="0 0 16 16">
    <path d="M13.545 2.907a13.2 13.2 0 0 0-3.257-1.011.05.05 0 0 0-.052.025c-.141.25-.297.577-.406.833a12.2 12.2 0 0 0-3.658 0 8 8 0 0 0-.412-.833.05.05 0 0 0-.052-.025c-1.125.194-2.22.534-3.257 1.011a.04.04 0 0 0-.021.018C.356 6.024-.213 9.047.066 12.032q.003.022.021.037a13.3 13.3 0 0 0 3.995 2.02.05.05 0 0 0 .056-.019q.463-.63.818-1.329a.05.05 0 0 0-.01-.059l-.018-.011a9 9 0 0 1-1.248-.595.05.05 0 0 1-.02-.066l.015-.019q.127-.095.248-.195a.05.05 0 0 1 .051-.007c2.619 1.196 5.454 1.196 8.041 0a.05.05 0 0 1 .053.007q.121.1.248.195a.05.05 0 0 1-.004.085 8 8 0 0 1-1.249.594.05.05 0 0 0-.03.03.05.05 0 0 0 .003.041c.24.465.515.909.817 1.329a.05.05 0 0 0 .056.019 13.2 13.2 0 0 0 4.001-2.02.05.05 0 0 0 .021-.037c.334-3.451-.559-6.449-2.366-9.106a.03.03 0 0 0-.02-.019m-8.198 7.307c-.789 0-1.438-.724-1.438-1.612s.637-1.613 1.438-1.613c.807 0 1.45.73 1.438 1.613 0 .888-.637 1.612-1.438 1.612m5.316 0c-.788 0-1.438-.724-1.438-1.612s.637-1.613 1.438-1.613c.807 0 1.451.73 1.438 1.613 0 .888-.631 1.612-1.438 1.612"></path>
  </symbol>
  <!-- Blink-->
  <symbol id="dialect" width="15" height="14" viewBox="0 0 15 14" fill="none" xmlns="http://www.w3.org/2000/svg">
    <g clip-path="url(#clip0_946_2016)">
      <g clip-path="url(#clip1_946_2016)">
        <path d="M0.8211 9.84976C0.453601 8.54791 0.502117 6.14404 0.502117 6.14404C0.502117 6.14404 1.8471 8.31316 4.16661 8.99174C5.87548 9.49168 8.22753 9.52995 9.70766 8.86079C11.5004 8.2727 12.6129 6.44409 12.0882 5.13685C11.3169 3.21533 9.07214 2.45433 6.73206 2.63638C4.93863 2.7759 3.46002 3.63536 2.57618 4.48124C1.70194 5.31791 1.48094 5.99067 1.48094 5.99067C1.48094 5.99067 0.798969 5.26365 0.715779 4.48124C0.525004 2.68697 2.13816 1.28994 4.43657 0.806763C7.55087 0.152069 11.2087 1.42387 13.2052 3.91062C14.5864 5.63102 14.9698 7.96302 13.8286 9.97084C12.1194 12.9778 8.31405 13.5725 5.84969 13.286C3.38533 12.9996 1.23742 11.3246 0.8211 9.84976Z" fill="currentColor"></path>
      </g>
    </g>
    <defs>
      <clipPath id="clip0_946_2016">
        <rect width="14" height="14" fill="white" transform="translate(0.5)"></rect>
      </clipPath>
      <clipPath id="clip1_946_2016">
        <rect width="14" height="12.7273" fill="white" transform="translate(0.5 0.63623)"></rect>
      </clipPath>
    </defs>
  </symbol>
  <!-- Link -->
  <symbol id="link" width="12" height="12" viewBox="0 0 10 10" fill="none" xmlns="http://www.w3.org/2000/svg">
    <path d="M4 2V3H1.5V8.5H7V6H8V9C8 9.13261 7.94732 9.25979 7.85355 9.35355C7.75979 9.44732 7.63261 9.5 7.5 9.5H1C0.867392 9.5 0.740215 9.44732 0.646447 9.35355C0.552678 9.25979 0.5 9.13261 0.5 9V2.5C0.5 2.36739 0.552678 2.24021 0.646447 2.14645C0.740215 2.05268 0.867392 2 1 2H4ZM9.5 0.5V4.5H8.5V2.2065L4.6035 6.1035L3.8965 5.3965L7.7925 1.5H5.5V0.5H9.5Z" fill="currentColor"></path>
  </symbol>
  <!-- Search -->
  <symbol id="search" viewBox="0 0 24 24" aria-hidden="true">
    <g>
      <path d="M10.25 3.75c-3.59 0-6.5 2.91-6.5 6.5s2.91 6.5 6.5 6.5c1.795 0 3.419-.726 4.596-1.904 1.178-1.177 1.904-2.801 1.904-4.596 0-3.59-2.91-6.5-6.5-6.5zm-8.5 6.5c0-4.694 3.806-8.5 8.5-8.5s8.5 3.806 8.5 8.5c0 1.986-.682 3.815-1.824 5.262l4.781 4.781-1.414 1.414-4.781-4.781c-1.447 1.142-3.276 1.824-5.262 1.824-4.694 0-8.5-3.806-8.5-8.5z"></path>
    </g>
  </symbol>
  <!-- Home -->
  <symbol id="home" viewBox="0 0 24 24" aria-hidden="true">
    <g fill="currentColor">
      <path d="M21.591 7.146L12.52 1.157c-.316-.21-.724-.21-1.04 0l-9.071 5.99c-.26.173-.409.456-.409.757v13.183c0 .502.418.913.929.913H9.14c.51 0 .929-.41.929-.913v-7.075h3.909v7.075c0 .502.417.913.928.913h6.165c.511 0 .929-.41.929-.913V7.904c0-.301-.158-.584-.408-.758z"></path>
    </g>
  </symbol>
  <!-- Secure connection -->
  <symbol id="connect" stroke-linejoin="round" style="color:currentColor" viewBox="0 0 16 16">
    <path fill-rule="evenodd" clip-rule="evenodd" d="M11 3.75C11 4.44036 11.5596 5 12.25 5C12.9404 5 13.5 4.44036 13.5 3.75C13.5 3.05964 12.9404 2.5 12.25 2.5C11.5596 2.5 11 3.05964 11 3.75ZM9.84848 5.09086C9.62652 4.69418 9.5 4.23687 9.5 3.75C9.5 2.23122 10.7312 1 12.25 1C13.7688 1 15 2.23122 15 3.75C15 5.26878 13.7688 6.5 12.25 6.5C11.7631 6.5 11.3058 6.37348 10.9091 6.15152L6.15153 10.9091C6.37348 11.3058 6.5 11.7631 6.5 12.25C6.5 13.7688 5.26878 15 3.75 15C2.23122 15 1 13.7688 1 12.25C1 10.7312 2.23122 9.5 3.75 9.5C4.23687 9.5 4.69419 9.62652 5.09087 9.84848L9.84848 5.09086ZM2.5 12.25C2.5 12.9404 3.05964 13.5 3.75 13.5C4.44036 13.5 5 12.9404 5 12.25C5 11.5596 4.44036 11 3.75 11C3.05964 11 2.5 11.5596 2.5 12.25ZM3.75 5C3.05964 5 2.5 4.44036 2.5 3.75C2.5 3.05964 3.05964 2.5 3.75 2.5C4.44036 2.5 5 3.05964 5 3.75C5 4.44036 4.44036 5 3.75 5ZM1 3.75C1 5.26878 2.23122 6.5 3.75 6.5C5.26878 6.5 6.5 5.26878 6.5 3.75C6.5 2.23122 5.26878 1 3.75 1C2.23122 1 1 2.23122 1 3.75ZM11 12.25C11 12.9404 11.5596 13.5 12.25 13.5C12.9404 13.5 13.5 12.9404 13.5 12.25C13.5 11.5596 12.9404 11 12.25 11C11.5596 11 11 11.5596 11 12.25ZM12.25 15C10.7312 15 9.5 13.7688 9.5 12.25C9.5 10.7312 10.7312 9.5 12.25 9.5C13.7688 9.5 15 10.7312 15 12.25C15 13.7688 13.7688 15 12.25 15Z" fill="currentColor"></path>
  </symbol>
  <!-- Lighenting bolt -->
  <symbol viewBox="0 0 24 24" aria-hidden="true" class="r-4qtqp9 r-yyyyoo r-dnmrzs r-bnwqim r-lrvibr r-m6rgpd r-1nao33i r-lwhw9o r-cnnz9e">
    <g>
      <path d="M7.323 2h11.443l-3 5h6.648L6.586 22.83 7.847 14H2.523l4.8-12zm1.354 2l-3.2 8h4.676l-.739 5.17L17.586 9h-5.352l3-5H8.677z"></path>
    </g>
  </symbol>
  <!-- Dollar -->
  <symbol id="dollar" stroke-linejoin="round" viewBox="0 0 16 16" style="color: currentcolor;">
    <path fill-rule="evenodd" clip-rule="evenodd" d="M8 14.5C11.5899 14.5 14.5 11.5899 14.5 8C14.5 4.41015 11.5899 1.5 8 1.5C4.41015 1.5 1.5 4.41015 1.5 8C1.5 11.5899 4.41015 14.5 8 14.5ZM8 16C12.4183 16 16 12.4183 16 8C16 3.58172 12.4183 0 8 0C3.58172 0 0 3.58172 0 8C0 12.4183 3.58172 16 8 16ZM8.62499 3.375V4V4.375H9C10.1736 4.375 11.125 5.3264 11.125 6.5H9.875C9.875 6.01675 9.48325 5.625 9 5.625H8.62499V7.375H9C10.1736 7.375 11.125 8.3264 11.125 9.5C11.125 10.6736 10.1736 11.625 9 11.625H8.62499V12V12.625H7.37499V12V11.625H7C5.8264 11.625 4.875 10.6736 4.875 9.5H6.125C6.125 9.98325 6.51675 10.375 7 10.375H7.37499V8.625H7C5.8264 8.625 4.875 7.6736 4.875 6.5C4.875 5.3264 5.8264 4.375 7 4.375H7.37499V4V3.375H8.62499ZM7.37499 5.625H7C6.51675 5.625 6.125 6.01675 6.125 6.5C6.125 6.98325 6.51675 7.375 7 7.375H7.37499V5.625ZM8.62499 8.625V10.375H9C9.48325 10.375 9.875 9.98325 9.875 9.5C9.875 9.01675 9.48325 8.625 9 8.625H8.62499Z" fill="currentColor"></path>
  </symbol>
  <!-- More -->
  <symbol id="more-horizontal" viewBox="0 0 24 24" aria-hidden="true" fill="currentColor">
    <g>
      <path d="M3 12c0-1.1.9-2 2-2s2 .9 2 2-.9 2-2 2-2-.9-2-2zm9 2c1.1 0 2-.9 2-2s-.9-2-2-2-2 .9-2 2 .9 2 2 2zm7 0c1.1 0 2-.9 2-2s-.9-2-2-2-2 .9-2 2 .9 2 2 2z"></path>
    </g>
  </symbol>
  <!-- Close -->
  <symbol viewBox="0 0 24 24" aria-hidden="true" id="close" fill="currentColor">
    <g>
      <path d="M10.59 12L4.54 5.96l1.42-1.42L12 10.59l6.04-6.05 1.42 1.42L13.41 12l6.05 6.04-1.42 1.42L12 13.41l-6.04 6.05-1.42-1.42L10.59 12z"></path>
    </g>
  </symbol>
  <!-- Back -->
  <symbol viewBox="0 0 24 24" aria-hidden="true" id="back" fill="currentColor">
    <g>
      <path d="M7.414 13l5.043 5.04-1.414 1.42L3.586 12l7.457-7.46 1.414 1.42L7.414 11H21v2H7.414z"></path>
    </g>
  </symbol>
  <!-- Discord -->
  <symbol id="Discord-Logo" viewBox="0 0 126.644 96">
    <defs>
      <style>
        .cls-1 {
          fill: #5865f2;
        }
      </style>
    </defs>
    <path id="Discord-Symbol-Blurple" class="cls-1" d="M81.15,0c-1.2376,2.1973-2.3489,4.4704-3.3591,6.794-9.5975-1.4396-19.3718-1.4396-28.9945,0-.985-2.3236-2.1216-4.5967-3.3591-6.794-9.0166,1.5407-17.8059,4.2431-26.1405,8.0568C2.779,32.5304-1.6914,56.3725.5312,79.8863c9.6732,7.1476,20.5083,12.603,32.0505,16.0884,2.6014-3.4854,4.8998-7.1981,6.8698-11.0623-3.738-1.3891-7.3497-3.1318-10.8098-5.1523.9092-.6567,1.7932-1.3386,2.6519-1.9953,20.281,9.547,43.7696,9.547,64.0758,0,.8587.7072,1.7427,1.3891,2.6519,1.9953-3.4601,2.0457-7.0718,3.7632-10.835,5.1776,1.97,3.8642,4.2683,7.5769,6.8698,11.0623,11.5419-3.4854,22.3769-8.9156,32.0509-16.0631,2.626-27.2771-4.496-50.9172-18.817-71.8548C98.9811,4.2684,90.1918,1.5659,81.1752.0505l-.0252-.0505ZM42.2802,65.4144c-6.2383,0-11.4159-5.6575-11.4159-12.6535s4.9755-12.6788,11.3907-12.6788,11.5169,5.708,11.4159,12.6788c-.101,6.9708-5.026,12.6535-11.3907,12.6535ZM84.3576,65.4144c-6.2637,0-11.3907-5.6575-11.3907-12.6535s4.9755-12.6788,11.3907-12.6788,11.4917,5.708,11.3906,12.6788c-.101,6.9708-5.026,12.6535-11.3906,12.6535Z" />
  </symbol>
  <!-- Creator -->
  <symbol id="creator" stroke-linejoin="round" viewBox="0 0 16 16" style="color: currentcolor;">
    <path d="M9.72 7.22a3.578 3.578 0 1 1 5.06 5.06l-.5.5-1.06-1.06.5-.5a2.079 2.079 0 0 0-2.94-2.94l-.5.5-1.06-1.06zm3.31 2.81-3 3-1.06-1.06 3-3zm-5.81 4.75a3.58 3.58 0 0 0 5.06 0l.5-.5-1.06-1.06-.5.5a2.078 2.078 0 1 1-2.94-2.94l.5-.5-1.06-1.06-.5.5a3.58 3.58 0 0 0 0 5.06M2.5 3.25A3.25 3.25 0 0 1 5.75 0h.5A3.25 3.25 0 0 1 9.5 3.25v.5A3.25 3.25 0 0 1 6.25 7h-.5A3.25 3.25 0 0 1 2.5 3.75zM5.75 1.5A1.75 1.75 0 0 0 4 3.25v.5c0 .966.784 1.75 1.75 1.75h.5A1.75 1.75 0 0 0 8 3.75v-.5A1.75 1.75 0 0 0 6.25 1.5zM4.5 9.082C2.473 9.42.944 10.79.069 12.686l-.069.15V16h4.5v-1.5h-3v-1.33c.664-1.351 1.692-2.257 3-2.559z" fill="currentColor"></path>
  </symbol>
  <!-- Trending -->
  <symbol id="cooking" viewBox="0 0 16 16">
    <path fill-rule="evenodd" clip-rule="evenodd" d="M9.91639 2.04229C9.86569 1.94071 9.79394 1.8511 9.70593 1.77939C9.61792 1.70769 9.51565 1.65553 9.40593 1.6264C9.29621 1.59727 9.18154 1.59182 9.06955 1.61042C8.95756 1.62902 8.85081 1.67125 8.75639 1.73429C8.48039 1.91829 8.2652 2.18069 8.0988 2.43829C7.9276 2.70229 7.7764 3.00869 7.6428 3.33109C7.3756 3.97429 7.1516 4.74549 6.9708 5.51829C6.75214 6.46268 6.5884 7.41895 6.4804 8.38229C6.1549 8.17245 5.89337 7.87715 5.7244 7.52869C5.462 6.98469 5.40599 6.30149 5.40599 5.40549C5.40596 5.24729 5.35902 5.09265 5.27112 4.96112C5.18321 4.82959 5.05828 4.72708 4.91212 4.66654C4.76596 4.60601 4.60513 4.59017 4.44997 4.62102C4.29481 4.65187 4.15228 4.72804 4.04039 4.83989C3.51973 5.35944 3.10682 5.97672 2.82538 6.65629C2.54394 7.33587 2.39951 8.06434 2.40039 8.79989C2.40046 9.72078 2.62763 10.6275 3.06179 11.4396C3.49594 12.2517 4.12368 12.9442 4.88939 13.4558C5.65511 13.9674 6.53518 14.2823 7.45164 14.3725C8.36811 14.4628 9.29268 14.3256 10.1435 13.9732C10.9943 13.6208 11.745 13.064 12.3292 12.3521C12.9134 11.6402 13.3131 10.7953 13.4928 9.8921C13.6724 8.9889 13.6266 8.05533 13.3593 7.17408C13.092 6.29283 12.6115 5.49109 11.9604 4.83989C11.4868 4.36709 11.1764 4.05189 10.882 3.66629C10.5916 3.28549 10.3028 2.81589 9.91639 2.04229ZM9.69639 12.0959C9.36076 12.4311 8.93331 12.6593 8.46803 12.7518C8.00275 12.8442 7.52052 12.7967 7.08224 12.6152C6.64396 12.4337 6.26928 12.1264 6.00554 11.7321C5.7418 11.3379 5.60081 10.8743 5.60039 10.3999C5.60039 10.3999 6.30359 10.7999 7.60039 10.7999C7.60039 9.99989 8.00039 7.59989 8.60039 7.19989C9.00039 7.99989 9.22919 8.23429 9.69719 8.70309C9.92043 8.92563 10.0975 9.1901 10.2181 9.4813C10.3388 9.7725 10.4008 10.0847 10.4004 10.3999C10.4008 10.7151 10.3388 11.0273 10.2181 11.3185C10.0975 11.6097 9.92043 11.8741 9.69719 12.0967L9.69639 12.0959Z" fill="currentColor"></path>
  </symbol>
</svg>